<svg width="50" height="50" viewBox="0 0 50 50" fill="none" xmlns="http://www.w3.org/2000/svg">
<g id="Polygon/color" clip-path="url(#clip0_1828_4202)">
<g id="Group">
<path id="Vector" d="M25 50C38.8071 50 50 38.8071 50 25C50 11.1929 38.8071 0 25 0C11.1929 0 0 11.1929 0 25C0 38.8071 11.1929 50 25 50Z" fill="#6F41D8"/>
<path id="Vector_2" d="M32.9563 19.8328C32.3798 19.4969 31.6313 19.4969 30.997 19.8328L26.4985 22.4172L23.4438 24.1016L18.9454 26.6844C18.3688 27.0219 17.6204 27.0219 16.986 26.6844L13.411 24.6625C12.8345 24.3266 12.4313 23.7094 12.4313 23.0344V19.0469C12.4313 18.3734 12.7767 17.7562 13.411 17.4187L16.9267 15.4531C17.5048 15.1156 18.2548 15.1156 18.8892 15.4531L22.4048 17.4187C22.9829 17.7562 23.386 18.3734 23.386 19.0469V21.6312L26.4407 19.8891V17.3063C26.4441 16.9708 26.3543 16.641 26.1813 16.3535C26.0084 16.0661 25.759 15.8323 25.461 15.6781L18.9454 11.9719C18.3688 11.6344 17.6204 11.6344 16.986 11.9719L10.3548 15.6781C10.0568 15.8323 9.80745 16.0661 9.63448 16.3535C9.46151 16.641 9.37172 16.9708 9.37509 17.3063V24.775C9.37509 25.45 9.7204 26.0672 10.3548 26.4047L16.986 30.1109C17.5626 30.4469 18.3126 30.4469 18.9454 30.1109L23.4438 27.5828L26.4985 25.8422L30.997 23.3156C31.5735 22.9781 32.322 22.9781 32.9563 23.3156L36.4735 25.2812C37.0517 25.6172 37.4532 26.2344 37.4532 26.9094V30.8969C37.4532 31.5703 37.1095 32.1875 36.4735 32.525L32.9579 34.5469C32.3798 34.8844 31.6298 34.8844 30.997 34.5469L27.4798 32.5812C26.9017 32.2437 26.4985 31.6266 26.4985 30.9531V28.3687L23.4438 30.1109V32.6938C23.4438 33.3672 23.7892 33.9859 24.4235 34.3219L31.0548 38.0281C31.6313 38.3656 32.3798 38.3656 33.0142 38.0281L39.6454 34.3219C40.222 33.9859 40.6251 33.3687 40.6251 32.6938V25.225C40.6285 24.8895 40.5387 24.5597 40.3657 24.2723C40.1927 23.9848 39.9434 23.751 39.6454 23.5969L32.9579 19.8328H32.9563Z" fill="white"/>
</g>
</g>
<defs>
<clipPath id="clip0_1828_4202">
<rect width="50" height="50" fill="white"/>
</clipPath>
</defs>
</svg>
