<svg width="50" height="50" viewBox="0 0 50 50" fill="none" xmlns="http://www.w3.org/2000/svg">
<g id="Tezos/color" clip-path="url(#clip0_1828_4975)">
<g id="Group">
<path id="Vector" d="M25 49.9998C38.8071 49.9998 50 38.8069 50 24.9998C50 11.1926 38.8071 -0.000244141 25 -0.000244141C11.1929 -0.000244141 0 11.1926 0 24.9998C0 38.8069 11.1929 49.9998 25 49.9998Z" fill="#468DEF"/>
<path id="Vector_2" fill-rule="evenodd" clip-rule="evenodd" d="M28.4219 40.6248C26.1406 40.6248 24.4781 40.0873 23.4344 39.0154C22.3922 37.9404 21.8703 36.7826 21.8703 35.5419C21.8703 35.0888 21.9609 34.706 22.1438 34.3966C22.322 34.0896 22.5794 33.836 22.8891 33.6623C23.2047 33.4841 23.5922 33.3935 24.0531 33.3935C24.5141 33.3935 24.9031 33.4841 25.2187 33.6623C25.5344 33.8419 25.7813 34.0857 25.9641 34.3966C26.1469 34.706 26.2375 35.0888 26.2375 35.5419C26.2375 36.0904 26.1047 36.5373 25.8375 36.8841C25.6034 37.2068 25.2712 37.4452 24.8906 37.5638C25.2063 37.9935 25.7031 38.2982 26.3828 38.4763C27.0625 38.6685 27.7422 38.7638 28.4203 38.7638C29.3318 38.7745 30.2257 38.5128 30.9875 38.0123C31.7516 37.5107 32.3156 36.7701 32.6781 35.7935C33.0422 34.8138 33.225 33.7044 33.225 32.4638C33.225 31.1154 33.025 29.9638 32.625 29.0091C32.2359 28.0419 31.6594 27.3263 30.8953 26.8607C30.1517 26.4015 29.2943 26.16 28.4203 26.1638C27.8391 26.1638 27.1109 26.4013 26.2375 26.8794L24.6359 27.6669V26.8794L31.8422 17.4294H21.8703V27.2373C21.8703 28.0498 22.0516 28.7169 22.4172 29.2419C22.7797 29.7669 23.3391 30.0294 24.0891 30.0294C24.6719 30.0294 25.2297 29.8388 25.7641 29.456C26.3 29.0718 26.7675 28.6001 27.1469 28.0607C27.1844 27.9669 27.2478 27.8856 27.3297 27.8263C27.3956 27.7704 27.4792 27.7394 27.5656 27.7388C27.7 27.7388 27.8562 27.8044 28.0391 27.9341C28.2048 28.1147 28.2959 28.3515 28.2937 28.5966C28.2729 28.7654 28.2427 28.9328 28.2031 29.0982C27.7906 30.0044 27.2188 30.6966 26.4922 31.1748C25.7806 31.6468 24.9445 31.8959 24.0906 31.8904C21.9313 31.8904 20.4391 31.4732 19.6141 30.6373C18.7891 29.8029 18.3766 28.6685 18.3766 27.2373V17.4294H13.2812V15.6029H18.375V11.4529L17.2125 10.306V9.37476H20.5969L21.8703 10.0185V15.6029L35.0437 15.5669L36.3562 16.856L28.275 24.8029C28.7645 24.6104 29.2792 24.4894 29.8031 24.4435C30.6781 24.4435 31.6594 24.7185 32.7516 25.2685C33.8563 25.8044 34.7047 26.5451 35.2984 27.4873C35.8937 28.4185 36.2766 29.3138 36.4453 30.1732C36.6151 30.9253 36.7068 31.6929 36.7188 32.4638C36.7302 33.9411 36.3935 35.4003 35.7359 36.7232C35.1041 38.0125 34.0513 39.0476 32.7516 39.6576C31.4009 40.3057 29.92 40.6365 28.4219 40.6248Z" fill="white"/>
</g>
</g>
<defs>
<clipPath id="clip0_1828_4975">
<rect width="50" height="50" fill="white" transform="translate(0 -0.000244141)"/>
</clipPath>
</defs>
</svg>
