<svg width="16" height="16" viewBox="0 0 16 16" fill="none" xmlns="http://www.w3.org/2000/svg">
<path d="M14.2909 7.77474L8.16426 13.9014C7.41369 14.652 6.39571 15.0736 5.33426 15.0736C4.2728 15.0736 3.25482 14.652 2.50426 13.9014C1.75369 13.1508 1.33203 12.1329 1.33203 11.0714C1.33203 10.0099 1.75369 8.99196 2.50426 8.2414L8.63092 2.11473C9.1313 1.61436 9.80995 1.33325 10.5176 1.33325C11.2252 1.33325 11.9039 1.61436 12.4043 2.11473C12.9046 2.61511 13.1857 3.29376 13.1857 4.0014C13.1857 4.70904 12.9046 5.38769 12.4043 5.88807L6.27092 12.0147C6.02073 12.2649 5.68141 12.4055 5.32759 12.4055C4.97377 12.4055 4.63444 12.2649 4.38426 12.0147C4.13407 11.7645 3.99351 11.4252 3.99351 11.0714C3.99351 10.7176 4.13407 10.3783 4.38426 10.1281L10.0443 4.47473" stroke="white" stroke-opacity="0.4" stroke-linecap="round" stroke-linejoin="round"/>
</svg>
