<svg width="16" height="16" viewBox="0 0 16 16" fill="none" xmlns="http://www.w3.org/2000/svg">
<path d="M6.66667 6H4" stroke="white" stroke-opacity="0.4" stroke-linecap="round" stroke-linejoin="round"/>
<path d="M10.3333 7.33333C9.41286 7.33333 8.66667 6.58714 8.66667 5.66667C8.66667 4.74619 9.41286 4 10.3333 4C11.2538 4 12 4.74619 12 5.66667C12 6.58714 11.2538 7.33333 10.3333 7.33333Z" stroke="white" stroke-opacity="0.4" stroke-linecap="round" stroke-linejoin="round"/>
<path d="M4 4H6" stroke="white" stroke-opacity="0.4" stroke-linecap="round" stroke-linejoin="round"/>
<path d="M12 12.0001L9 10.0001L7.33333 11.3334L4 8.66675" stroke="white" stroke-opacity="0.4" stroke-linecap="round" stroke-linejoin="round"/>
<path d="M2 13.4V2.6C2 2.26863 2.26863 2 2.6 2H13.4C13.7314 2 14 2.26863 14 2.6V13.4C14 13.7314 13.7314 14 13.4 14H2.6C2.26863 14 2 13.7314 2 13.4Z" stroke="white" stroke-opacity="0.4"/>
</svg>
