<svg width="18" height="19" viewBox="0 0 18 19" fill="none" xmlns="http://www.w3.org/2000/svg">
<path d="M16.8653 8.7186L9.20697 16.3769C8.26877 17.3151 6.99629 17.8422 5.66947 17.8422C4.34265 17.8422 3.07017 17.3151 2.13197 16.3769C1.19376 15.4387 0.666687 14.1663 0.666687 12.8394C0.666687 11.5126 1.19376 10.2401 2.13197 9.30194L9.7903 1.6436C10.4158 1.01813 11.2641 0.666748 12.1486 0.666748C13.0332 0.666748 13.8815 1.01813 14.507 1.6436C15.1324 2.26907 15.4838 3.11739 15.4838 4.00193C15.4838 4.88648 15.1324 5.7348 14.507 6.36027L6.8403 14.0186C6.52757 14.3313 6.10341 14.507 5.66113 14.507C5.21886 14.507 4.7947 14.3313 4.48197 14.0186C4.16923 13.7059 3.99354 13.2817 3.99354 12.8394C3.99354 12.3972 4.16923 11.973 4.48197 11.6603L11.557 4.5936" stroke="white" stroke-opacity="0.4" stroke-linecap="round" stroke-linejoin="round"/>
</svg>
