<svg width="20" height="20" viewBox="0 0 20 20" fill="none" xmlns="http://www.w3.org/2000/svg">
<g opacity="0.4">
<path d="M0.833313 16.6667V15.8333C0.833313 12.6117 3.44499 10 6.66665 10V10C9.88831 10 12.5 12.6117 12.5 15.8333V16.6667" stroke="white" stroke-width="1.5" stroke-linecap="round"/>
<path d="M10.8333 11.6667V11.6667C10.8333 9.36548 12.6988 7.5 15 7.5V7.5C17.3012 7.5 19.1666 9.36548 19.1666 11.6667V12.0833" stroke="white" stroke-width="1.5" stroke-linecap="round"/>
<path d="M6.66665 9.99992C8.5076 9.99992 9.99998 8.50753 9.99998 6.66658C9.99998 4.82564 8.5076 3.33325 6.66665 3.33325C4.8257 3.33325 3.33331 4.82564 3.33331 6.66658C3.33331 8.50753 4.8257 9.99992 6.66665 9.99992Z" stroke="white" stroke-width="1.5" stroke-linecap="round" stroke-linejoin="round"/>
<path d="M15 7.5C16.3807 7.5 17.5 6.38071 17.5 5C17.5 3.61929 16.3807 2.5 15 2.5C13.6193 2.5 12.5 3.61929 12.5 5C12.5 6.38071 13.6193 7.5 15 7.5Z" stroke="white" stroke-width="1.5" stroke-linecap="round" stroke-linejoin="round"/>
</g>
</svg>
