<svg width="28" height="28" viewBox="0 0 28 28" fill="none" xmlns="http://www.w3.org/2000/svg">
<path d="M4.66602 27.3334C3.5549 27.3334 2.61046 26.9445 1.83268 26.1667C1.0549 25.389 0.666016 24.4445 0.666016 23.3334V4.66675C0.666016 3.55564 1.0549 2.61119 1.83268 1.83341C2.61046 1.05564 3.5549 0.666748 4.66602 0.666748H23.3327C24.4438 0.666748 25.3882 1.05564 26.166 1.83341C26.9438 2.61119 27.3327 3.55564 27.3327 4.66675V23.3334C27.3327 24.4445 26.9438 25.389 26.166 26.1667C25.3882 26.9445 24.4438 27.3334 23.3327 27.3334H4.66602ZM4.66602 25.3334H23.3327C23.9105 25.3334 24.3882 25.139 24.766 24.7501C25.1438 24.3612 25.3327 23.889 25.3327 23.3334V4.66675C25.3327 4.08897 25.1438 3.61119 24.766 3.23341C24.3882 2.85564 23.9105 2.66675 23.3327 2.66675H4.66602C4.11046 2.66675 3.63824 2.85564 3.24935 3.23341C2.86046 3.61119 2.66602 4.08897 2.66602 4.66675V23.3334C2.66602 23.889 2.86046 24.3612 3.24935 24.7501C3.63824 25.139 4.11046 25.3334 4.66602 25.3334ZM6.79935 21.6667L10.6304 17.8357C11.0191 17.447 11.6485 17.4449 12.0398 17.8308L13.766 19.5334L15.8856 16.8535C16.2847 16.3488 17.0497 16.347 17.4512 16.8497L21.2994 21.6667H6.79935ZM8.66602 11.0001C8.02157 11.0001 7.47157 10.7723 7.01602 10.3167C6.56046 9.86119 6.33268 9.31119 6.33268 8.66675C6.33268 8.0223 6.56046 7.4723 7.01602 7.01675C7.47157 6.56119 8.02157 6.33342 8.66602 6.33342C9.31046 6.33342 9.86046 6.56119 10.316 7.01675C10.7716 7.4723 10.9993 8.0223 10.9993 8.66675C10.9993 9.31119 10.7716 9.86119 10.316 10.3167C9.86046 10.7723 9.31046 11.0001 8.66602 11.0001Z" fill="white"/>
</svg>
