<svg width="20" height="20" viewBox="0 0 20 20" fill="none" xmlns="http://www.w3.org/2000/svg">
<path d="M10 18.3334C5.39764 18.3334 1.66668 14.6025 1.66668 10.0001C1.66668 5.39771 5.39764 1.66675 10 1.66675C14.6024 1.66675 18.3333 5.39771 18.3333 10.0001C18.3333 14.6025 14.6024 18.3334 10 18.3334Z" stroke="#7D7D7D" stroke-linecap="round" stroke-linejoin="round"/>
<path d="M13.75 12.0833C13.75 12.0833 12.5 13.7499 10 13.7499C7.5 13.7499 6.25 12.0833 6.25 12.0833" stroke="#7D7D7D" stroke-linecap="round" stroke-linejoin="round"/>
<path d="M12.9167 7.50008C12.6866 7.50008 12.5 7.31353 12.5 7.08341C12.5 6.8533 12.6866 6.66675 12.9167 6.66675C13.1468 6.66675 13.3333 6.8533 13.3333 7.08341C13.3333 7.31353 13.1468 7.50008 12.9167 7.50008Z" fill="#7D7D7D" stroke="#7D7D7D" stroke-linecap="round" stroke-linejoin="round"/>
<path d="M7.08333 7.50008C6.85321 7.50008 6.66667 7.31353 6.66667 7.08341C6.66667 6.8533 6.85321 6.66675 7.08333 6.66675C7.31345 6.66675 7.5 6.8533 7.5 7.08341C7.5 7.31353 7.31345 7.50008 7.08333 7.50008Z" fill="#7D7D7D" stroke="#7D7D7D" stroke-linecap="round" stroke-linejoin="round"/>
</svg>
