<svg width="16" height="16" viewBox="0 0 16 16" fill="none" xmlns="http://www.w3.org/2000/svg">
<path d="M15.5 13.8334V6.45363C15.5 5.57943 15.0434 4.76873 14.2958 4.31564L8.86383 1.02356C8.33289 0.701781 7.6671 0.701781 7.13616 1.02356L1.70424 4.31564C0.956632 4.76873 0.5 5.57943 0.5 6.45363V13.8334C0.5 14.7538 1.24619 15.5 2.16667 15.5H4.5C5.05228 15.5 5.5 15.0523 5.5 14.5V11.3334C5.5 10.4129 6.24619 9.66669 7.16667 9.66669H8.83333C9.75381 9.66669 10.5 10.4129 10.5 11.3334V14.5C10.5 15.0523 10.9477 15.5 11.5 15.5H13.8333C14.7538 15.5 15.5 14.7538 15.5 13.8334Z" fill="white"/>
</svg>
