<svg width="20" height="20" viewBox="0 0 20 20" fill="none" xmlns="http://www.w3.org/2000/svg">
<g clip-path="url(#clip0_460_3920)">
<path d="M8.52131 1.62368C9.31465 0.752549 10.6853 0.75255 11.4787 1.62368L12.2142 2.43128C12.6151 2.87154 13.1914 3.11025 13.7862 3.08245L14.8774 3.03146C16.0543 2.97645 17.0236 3.94568 16.9685 5.12264L16.9176 6.21377C16.8898 6.80859 17.1285 7.38487 17.5687 7.78582L18.3763 8.52131C19.2475 9.31465 19.2475 10.6853 18.3763 11.4787L17.5687 12.2142C17.1285 12.6151 16.8898 13.1914 16.9176 13.7862L16.9685 14.8774C17.0236 16.0543 16.0543 17.0236 14.8774 16.9685L13.7862 16.9176C13.1914 16.8898 12.6151 17.1285 12.2142 17.5687L11.4787 18.3763C10.6853 19.2475 9.31465 19.2475 8.52131 18.3763L7.78582 17.5687C7.38487 17.1285 6.80859 16.8898 6.21376 16.9176L5.12264 16.9685C3.94568 17.0236 2.97645 16.0543 3.03146 14.8774L3.08245 13.7862C3.11025 13.1914 2.87154 12.6151 2.43128 12.2142L1.62368 11.4787C0.752549 10.6853 0.75255 9.31465 1.62368 8.52131L2.43128 7.78582C2.87154 7.38487 3.11025 6.80859 3.08245 6.21376L3.03146 5.12264C2.97645 3.94568 3.94568 2.97645 5.12264 3.03146L6.21376 3.08245C6.80859 3.11025 7.38487 2.87154 7.78582 2.43128L8.52131 1.62368Z" fill="#EF8031"/>
<path d="M7.5 10L9.16667 11.6667L12.5 8.33333" stroke="white" stroke-width="1.5" stroke-linecap="round" stroke-linejoin="round"/>
</g>
<defs>
<clipPath id="clip0_460_3920">
<rect width="20" height="20" fill="white"/>
</clipPath>
</defs>
</svg>
