<svg width="16" height="16" viewBox="0 0 16 16" fill="none" xmlns="http://www.w3.org/2000/svg">
<g clip-path="url(#clip0_217_6423)">
<path d="M8.0013 14.6666C4.3194 14.6666 1.33464 11.6818 1.33464 7.99992C1.33464 4.31802 4.3194 1.33325 8.0013 1.33325C11.6832 1.33325 14.668 4.31802 14.668 7.99992C14.668 11.6818 11.6832 14.6666 8.0013 14.6666Z" stroke="#7D7D7D" stroke-linecap="round" stroke-linejoin="round"/>
<path d="M11 9.66675C11 9.66675 10 11.0001 8 11.0001C6 11.0001 5 9.66675 5 9.66675" stroke="#7D7D7D" stroke-linecap="round" stroke-linejoin="round"/>
<path d="M10.3346 5.99992C10.1505 5.99992 10.0013 5.85068 10.0013 5.66659C10.0013 5.48249 10.1505 5.33325 10.3346 5.33325C10.5187 5.33325 10.668 5.48249 10.668 5.66659C10.668 5.85068 10.5187 5.99992 10.3346 5.99992Z" fill="#7D7D7D" stroke="#7D7D7D" stroke-linecap="round" stroke-linejoin="round"/>
<path d="M5.66667 5.99992C5.48257 5.99992 5.33333 5.85068 5.33333 5.66659C5.33333 5.48249 5.48257 5.33325 5.66667 5.33325C5.85076 5.33325 6 5.48249 6 5.66659C6 5.85068 5.85076 5.99992 5.66667 5.99992Z" fill="#7D7D7D" stroke="#7D7D7D" stroke-linecap="round" stroke-linejoin="round"/>
</g>
<defs>
<clipPath id="clip0_217_6423">
<rect width="16" height="16" fill="white"/>
</clipPath>
</defs>
</svg>
