<svg width="18" height="18" viewBox="0 0 18 18" fill="none" xmlns="http://www.w3.org/2000/svg">
<path d="M11.9322 16.3593C6.49756 14.5282 3.58488 11.2031 1.7299 6.51555C1.26617 5.57805 1.26615 3.23429 4.04861 1.73428C4.74421 1.35928 5.43984 1.35928 6.36732 2.29679C7.29481 3.2343 6.36732 2.29679 7.29481 3.23429C8.36151 4.3125 8.248 5.25 8.0625 5.71875C7.87701 6.28125 6.18323 6.7968 6.46147 7.92181C6.73972 9.04681 8.96428 11.3801 10.0773 11.5677C11.1902 11.7552 11.8175 10.2188 12.2813 9.9375C12.745 9.65625 13.5119 9.5185 14.2509 10.2656C14.625 10.6437 14.7147 10.7343 15.6422 11.6718C16.5697 12.6093 16.6745 13.3702 16.2914 14.0156C15.0938 16.4504 13.0788 16.7457 11.9322 16.3593Z" stroke="white" stroke-width="1.5" stroke-linecap="round" stroke-linejoin="round"/>
</svg>
