<svg width="16" height="16" viewBox="0 0 16 16" fill="none" xmlns="http://www.w3.org/2000/svg">
<path d="M4.18033 4.33325C4.06185 4.73972 4 5.16642 4 5.59992C4 10.5777 2 11.9999 2 11.9999H12" stroke="white" stroke-width="1.5" stroke-linecap="round" stroke-linejoin="round"/>
<path d="M5.17188 2.58293C5.92202 1.78277 6.93944 1.33325 8.0003 1.33325C9.06117 1.33325 10.0786 1.78277 10.8287 2.58293C11.5789 3.38308 12.0003 4.46833 12.0003 5.59992C12.0003 10.5777 14.0003 11.9999 14.0003 11.9999" stroke="white" stroke-width="1.5" stroke-linecap="round" stroke-linejoin="round"/>
<path d="M9.15432 14C9.03712 14.2021 8.86888 14.3698 8.66647 14.4864C8.46406 14.6029 8.23458 14.6643 8.00099 14.6643C7.7674 14.6643 7.53792 14.6029 7.33551 14.4864C7.13309 14.3698 6.96486 14.2021 6.84766 14" stroke="white" stroke-width="1.5" stroke-linecap="round" stroke-linejoin="round"/>
<path d="M2 2L14 14" stroke="white" stroke-width="1.5" stroke-linecap="round" stroke-linejoin="round"/>
</svg>
