<svg width="20" height="20" viewBox="0 0 20 20" fill="none" xmlns="http://www.w3.org/2000/svg">
<path d="M15.207 11.6667V8.95842H12.4987V7.70842H15.207V5.00008H16.457V7.70842H19.1654V8.95842H16.457V11.6667H15.207ZM7.4987 9.97925C6.58203 9.97925 5.83203 9.68758 5.2487 9.10425C4.66536 8.52092 4.3737 7.77092 4.3737 6.85425C4.3737 5.93758 4.66536 5.18758 5.2487 4.60425C5.83203 4.02091 6.58203 3.72925 7.4987 3.72925C8.41536 3.72925 9.16537 4.02091 9.7487 4.60425C10.332 5.18758 10.6237 5.93758 10.6237 6.85425C10.6237 7.77092 10.332 8.52092 9.7487 9.10425C9.16537 9.68758 8.41536 9.97925 7.4987 9.97925ZM0.832031 16.6667V14.7084C0.832031 14.2223 0.953559 13.7813 1.19661 13.3855C1.43967 12.9897 1.79036 12.6945 2.2487 12.5001C3.29036 12.0417 4.21745 11.7188 5.02995 11.5313C5.84245 11.3438 6.66536 11.2501 7.4987 11.2501C8.33203 11.2501 9.15148 11.3438 9.95703 11.5313C10.7626 11.7188 11.6862 12.0417 12.7279 12.5001C13.1862 12.7084 13.5404 13.007 13.7904 13.3959C14.0404 13.7848 14.1654 14.2223 14.1654 14.7084V16.6667H0.832031Z" fill="white"/>
</svg>
