<svg width="20" height="20" viewBox="0 0 20 20" fill="none" xmlns="http://www.w3.org/2000/svg">
<path d="M2.91797 14.6666C2.58464 14.6666 2.29297 14.5416 2.04297 14.2916C1.79297 14.0416 1.66797 13.7499 1.66797 13.4166V6.58325C1.66797 6.24992 1.79297 5.95825 2.04297 5.70825C2.29297 5.45825 2.58464 5.33325 2.91797 5.33325H13.7513C14.0846 5.33325 14.3763 5.45825 14.6263 5.70825C14.8763 5.95825 15.0013 6.24992 15.0013 6.58325V9.06242L18.3346 5.72909V14.2708L15.0013 10.9374V13.4166C15.0013 13.7499 14.8763 14.0416 14.6263 14.2916C14.3763 14.5416 14.0846 14.6666 13.7513 14.6666H2.91797Z" fill="white"/>
</svg>
