<svg width="20" height="20" viewBox="0 0 20 20" fill="none" xmlns="http://www.w3.org/2000/svg">
<path d="M10.0013 11.1876C9.40408 11.1876 8.90408 10.9723 8.5013 10.5417C8.09852 10.1112 7.89714 9.59036 7.89714 8.97925V3.75008C7.89714 3.16675 8.102 2.67369 8.51172 2.27091C8.92144 1.86814 9.41797 1.66675 10.0013 1.66675C10.5846 1.66675 11.0812 1.86814 11.4909 2.27091C11.9006 2.67369 12.1055 3.16675 12.1055 3.75008V8.97925C12.1055 9.59036 11.9041 10.1112 11.5013 10.5417C11.0985 10.9723 10.5985 11.1876 10.0013 11.1876ZM9.3763 17.5001V14.6667C7.90408 14.514 6.66797 13.8959 5.66797 12.8126C4.66797 11.7292 4.16797 10.4515 4.16797 8.97925H5.41797C5.41797 10.2431 5.86589 11.3056 6.76172 12.1667C7.65755 13.0279 8.73741 13.4584 10.0013 13.4584C11.2652 13.4584 12.3451 13.0279 13.2409 12.1667C14.1367 11.3056 14.5846 10.2431 14.5846 8.97925H15.8346C15.8346 10.4515 15.3346 11.7292 14.3346 12.8126C13.3346 13.8959 12.0985 14.514 10.6263 14.6667V17.5001H9.3763Z" fill="white"/>
</svg>
