<svg width="20" height="20" viewBox="0 0 20 20" fill="none" xmlns="http://www.w3.org/2000/svg">
<path d="M10.0018 6.66675C11.7518 6.66675 13.4255 7.01744 15.0227 7.71883C16.6199 8.42022 17.988 9.43758 19.1269 10.7709C19.238 10.9098 19.297 11.0626 19.3039 11.2292C19.3109 11.3959 19.2519 11.5417 19.1269 11.6667L17.1685 13.6251C17.0574 13.7362 16.8977 13.7987 16.6893 13.8126C16.481 13.8265 16.3143 13.7848 16.1893 13.6876L13.8143 11.9167C13.731 11.8473 13.6685 11.7709 13.6268 11.6876C13.5852 11.6042 13.5643 11.514 13.5643 11.4167V8.52092C12.981 8.29869 12.3873 8.14244 11.7831 8.05217C11.1789 7.96189 10.5852 7.91675 10.0018 7.91675C9.41852 7.91675 8.82477 7.96189 8.2206 8.05217C7.61643 8.14244 7.02268 8.29869 6.43935 8.52092V11.4167C6.43935 11.514 6.41852 11.6042 6.37685 11.6876C6.33518 11.7709 6.27268 11.8473 6.18935 11.9167L3.81435 13.6876C3.64768 13.8126 3.47754 13.8681 3.30393 13.8542C3.13032 13.8404 2.97407 13.764 2.83518 13.6251L0.87685 11.6667C0.75185 11.5417 0.692823 11.3959 0.699767 11.2292C0.706711 11.0626 0.765739 10.9098 0.87685 10.7709C2.01574 9.43758 3.38379 8.42022 4.98102 7.71883C6.57824 7.01744 8.25185 6.66675 10.0018 6.66675Z" fill="#DDDDDD"/>
</svg>
