<svg width="50" height="50" viewBox="0 0 50 50" fill="none" xmlns="http://www.w3.org/2000/svg">
<g id="Solana/color" clip-path="url(#clip0_1828_5419)">
<g id="Group">
<path id="Vector" d="M25 49.9999C38.807 49.9999 49.9999 38.807 49.9999 25C49.9999 11.1929 38.807 0 25 0C11.1929 0 0 11.1929 0 25C0 38.807 11.1929 49.9999 25 49.9999Z" fill="url(#paint0_linear_1828_5419)"/>
<path id="Vector_2" d="M15.5089 30.7609C15.6817 30.5905 15.9147 30.495 16.1574 30.4953H38.6042C38.6947 30.4941 38.7835 30.52 38.8592 30.5697C38.9348 30.6194 38.9938 30.6906 39.0286 30.7741C39.0634 30.8577 39.0724 30.9498 39.0544 31.0385C39.0364 31.1272 38.9923 31.2085 38.9277 31.2718L34.4933 35.6703C34.3208 35.8413 34.0878 35.9373 33.8449 35.9375H11.398C11.3075 35.9382 11.2189 35.912 11.1434 35.8621C11.0679 35.8122 11.009 35.7409 10.9743 35.6573C10.9395 35.5737 10.9305 35.4817 10.9484 35.393C10.9663 35.3043 11.0102 35.2229 11.0746 35.1593L15.5089 30.7609ZM15.5089 14.3281C15.6817 14.1577 15.9147 14.0622 16.1574 14.0625H38.6042C39.012 14.0625 39.2167 14.5531 38.9277 14.8406L34.4933 19.2391C34.3205 19.4095 34.0875 19.5049 33.8449 19.5047H11.398C11.3079 19.5051 11.2196 19.4788 11.1444 19.4289C11.0693 19.3791 11.0107 19.3081 10.976 19.2248C10.9413 19.1416 10.9322 19.0499 10.9497 18.9615C10.9673 18.873 11.0107 18.7918 11.0746 18.7281L15.5089 14.3281ZM34.4933 22.4922C34.3205 22.3217 34.0875 22.2263 33.8449 22.2265H11.398C11.3075 22.2258 11.2189 22.252 11.1434 22.3019C11.0679 22.3518 11.009 22.4231 10.9743 22.5067C10.9395 22.5903 10.9305 22.6823 10.9484 22.771C10.9663 22.8597 11.0102 22.9411 11.0746 23.0047L15.5089 27.4031C15.6808 27.5734 15.9152 27.6687 16.1574 27.6687H38.6042C38.6947 27.6695 38.7834 27.6433 38.8589 27.5933C38.9343 27.5434 38.9932 27.4721 39.028 27.3886C39.0627 27.305 39.0717 27.213 39.0538 27.1243C39.036 27.0356 38.992 26.9542 38.9277 26.8906L34.4933 22.4922Z" fill="white"/>
</g>
</g>
<defs>
<linearGradient id="paint0_linear_1828_5419" x1="0" y1="0" x2="49.9999" y2="49.9999" gradientUnits="userSpaceOnUse">
<stop stop-color="#62D1B7"/>
<stop offset="0.53125" stop-color="#5870E3"/>
<stop offset="1" stop-color="#8968F5"/>
</linearGradient>
<clipPath id="clip0_1828_5419">
<rect width="49.9999" height="49.9999" fill="white"/>
</clipPath>
</defs>
</svg>
